<svg width="44" height="44" viewBox="0 0 44 44" fill="none" xmlns="http://www.w3.org/2000/svg">
<path d="M9.00001 35C12.1161 34.5373 14.9621 32.9697 17.0185 30.5832C19.0749 28.1966 20.2046 25.1503 20.2017 22C20.2173 18.0455 21.6519 14.228 24.2444 11.2418C26.837 8.2556 30.4152 6.29916 34.3283 5.72833L39.94 4.92666C39.7883 4.75333 39.6583 4.58 39.485 4.40666C32.4217 -2.65667 18.8583 -0.533336 9.15168 9.13C0.940013 17.45 -1.83332 28.5 1.98001 35.9967L9.00001 35Z" fill="white"/>
<path d="M23.5817 22C23.5675 25.9538 22.1367 29.7716 19.5489 32.7609C16.9611 35.7501 13.3877 37.713 9.47667 38.2933L4.14667 39.0517L4.47167 39.42C11.535 46.4833 25.0983 44.3817 34.805 34.7183C42.9733 26.5717 45.8333 15.5 42.0417 8.11166L34.805 9.15166C31.7088 9.60144 28.8755 11.1439 26.8172 13.5002C24.7588 15.8565 23.6112 18.8714 23.5817 22Z" fill="white"/>
</svg>
