<svg width="960" height="540" viewBox="0 0 960 540" fill="none" xmlns="http://www.w3.org/2000/svg">
<g clip-path="url(#clip0_140_2)">
<path d="M960 0H0V540H960V0Z" fill="#242526"/>
<path d="M652 540L643.5 527.2C635 514.3 618 488.7 603 463C588 437.3 575 411.7 581.2 386C587.3 360.3 612.7 334.7 638.7 308.8C664.7 283 691.3 257 702.2 231.2C713 205.3 708 179.7 692.3 154C676.7 128.3 650.3 102.7 637.2 77C624 51.3 624 25.7 624 12.8V0H960V12.8C960 25.7 960 51.3 960 77C960 102.7 960 128.3 960 154C960 179.7 960 205.3 960 231.2C960 257 960 283 960 308.8C960 334.7 960 360.3 960 386C960 411.7 960 437.3 960 463C960 488.7 960 514.3 960 527.2V540H652Z" fill="#FA7268"/>
<path d="M667 540L674.5 527.2C682 514.3 697 488.7 696 463C695 437.3 678 411.7 684.7 386C691.3 360.3 721.7 334.7 725.2 308.8C728.7 283 705.3 257 688.2 231.2C671 205.3 660 179.7 671.5 154C683 128.3 717 102.7 717.3 77C717.7 51.3 684.3 25.7 667.7 12.8L651 0H960V12.8C960 25.7 960 51.3 960 77C960 102.7 960 128.3 960 154C960 179.7 960 205.3 960 231.2C960 257 960 283 960 308.8C960 334.7 960 360.3 960 386C960 411.7 960 437.3 960 463C960 488.7 960 514.3 960 527.2V540H667Z" fill="#EF5F67"/>
<path d="M786 540L788.5 527.2C791 514.3 796 488.7 789 463C782 437.3 763 411.7 765.5 386C768 360.3 792 334.7 797.3 308.8C802.7 283 789.3 257 771.2 231.2C753 205.3 730 179.7 727.8 154C725.7 128.3 744.3 102.7 750.7 77C757 51.3 751 25.7 748 12.8L745 0H960V12.8C960 25.7 960 51.3 960 77C960 102.7 960 128.3 960 154C960 179.7 960 205.3 960 231.2C960 257 960 283 960 308.8C960 334.7 960 360.3 960 386C960 411.7 960 437.3 960 463C960 488.7 960 514.3 960 527.2V540H786Z" fill="#E34C67"/>
<path d="M826 540L819.7 527.2C813.3 514.3 800.7 488.7 794.8 463C789 437.3 790 411.7 798.8 386C807.7 360.3 824.3 334.7 833 308.8C841.7 283 842.3 257 831.3 231.2C820.3 205.3 797.7 179.7 793.2 154C788.7 128.3 802.3 102.7 813.3 77C824.3 51.3 832.7 25.7 836.8 12.8L841 0H960V12.8C960 25.7 960 51.3 960 77C960 102.7 960 128.3 960 154C960 179.7 960 205.3 960 231.2C960 257 960 283 960 308.8C960 334.7 960 360.3 960 386C960 411.7 960 437.3 960 463C960 488.7 960 514.3 960 527.2V540H826Z" fill="#D53867"/>
<path d="M861 540L863.7 527.2C866.3 514.3 871.7 488.7 881.5 463C891.3 437.3 905.7 411.7 902.2 386C898.7 360.3 877.3 334.7 864.3 308.8C851.3 283 846.7 257 854.7 231.2C862.7 205.3 883.3 179.7 891.7 154C900 128.3 896 102.7 897.7 77C899.3 51.3 906.7 25.7 910.3 12.8L914 0H960V12.8C960 25.7 960 51.3 960 77C960 102.7 960 128.3 960 154C960 179.7 960 205.3 960 231.2C960 257 960 283 960 308.8C960 334.7 960 360.3 960 386C960 411.7 960 437.3 960 463C960 488.7 960 514.3 960 527.2V540H861Z" fill="#C62368"/>
</g>
<defs>
<clipPath id="clip0_140_2">
<rect width="960" height="540" fill="white"/>
</clipPath>
</defs>
</svg>
