<svg id="visual" viewBox="0 0 960 540" width="960" height="540" xmlns="http://www.w3.org/2000/svg" xmlns:xlink="http://www.w3.org/1999/xlink" version="1.1"><rect x="0" y="0" width="960" height="540" fill="#ffffff"></rect><path d="M677 540L659.3 527.2C641.7 514.3 606.3 488.7 596 463C585.7 437.3 600.3 411.7 607.8 386C615.3 360.3 615.7 334.7 631.2 308.8C646.7 283 677.3 257 674.3 231.2C671.3 205.3 634.7 179.7 630.8 154C627 128.3 656 102.7 672.3 77C688.7 51.3 692.3 25.7 694.2 12.8L696 0L960 0L960 12.8C960 25.7 960 51.3 960 77C960 102.7 960 128.3 960 154C960 179.7 960 205.3 960 231.2C960 257 960 283 960 308.8C960 334.7 960 360.3 960 386C960 411.7 960 437.3 960 463C960 488.7 960 514.3 960 527.2L960 540Z" fill="#20c1ee"></path><path d="M742 540L746.2 527.2C750.3 514.3 758.7 488.7 755 463C751.3 437.3 735.7 411.7 718 386C700.3 360.3 680.7 334.7 667.7 308.8C654.7 283 648.3 257 662 231.2C675.7 205.3 709.3 179.7 712 154C714.7 128.3 686.3 102.7 673.2 77C660 51.3 662 25.7 663 12.8L664 0L960 0L960 12.8C960 25.7 960 51.3 960 77C960 102.7 960 128.3 960 154C960 179.7 960 205.3 960 231.2C960 257 960 283 960 308.8C960 334.7 960 360.3 960 386C960 411.7 960 437.3 960 463C960 488.7 960 514.3 960 527.2L960 540Z" fill="#1dabd8"></path><path d="M746 540L758 527.2C770 514.3 794 488.7 786.5 463C779 437.3 740 411.7 722.2 386C704.3 360.3 707.7 334.7 714.5 308.8C721.3 283 731.7 257 747.5 231.2C763.3 205.3 784.7 179.7 786.8 154C789 128.3 772 102.7 769 77C766 51.3 777 25.7 782.5 12.8L788 0L960 0L960 12.8C960 25.7 960 51.3 960 77C960 102.7 960 128.3 960 154C960 179.7 960 205.3 960 231.2C960 257 960 283 960 308.8C960 334.7 960 360.3 960 386C960 411.7 960 437.3 960 463C960 488.7 960 514.3 960 527.2L960 540Z" fill="#1b95c1"></path><path d="M818 540L825.5 527.2C833 514.3 848 488.7 846.3 463C844.7 437.3 826.3 411.7 826.2 386C826 360.3 844 334.7 844.8 308.8C845.7 283 829.3 257 814.7 231.2C800 205.3 787 179.7 781.3 154C775.7 128.3 777.3 102.7 781.8 77C786.3 51.3 793.7 25.7 797.3 12.8L801 0L960 0L960 12.8C960 25.7 960 51.3 960 77C960 102.7 960 128.3 960 154C960 179.7 960 205.3 960 231.2C960 257 960 283 960 308.8C960 334.7 960 360.3 960 386C960 411.7 960 437.3 960 463C960 488.7 960 514.3 960 527.2L960 540Z" fill="#1880aa"></path><path d="M894 540L889.2 527.2C884.3 514.3 874.7 488.7 879 463C883.3 437.3 901.7 411.7 901 386C900.3 360.3 880.7 334.7 877.5 308.8C874.3 283 887.7 257 884.8 231.2C882 205.3 863 179.7 865.8 154C868.7 128.3 893.3 102.7 900.3 77C907.3 51.3 896.7 25.7 891.3 12.8L886 0L960 0L960 12.8C960 25.7 960 51.3 960 77C960 102.7 960 128.3 960 154C960 179.7 960 205.3 960 231.2C960 257 960 283 960 308.8C960 334.7 960 360.3 960 386C960 411.7 960 437.3 960 463C960 488.7 960 514.3 960 527.2L960 540Z" fill="#146c94"></path></svg>