<svg id="visual" viewBox="0 0 960 540" width="960" height="540" xmlns="http://www.w3.org/2000/svg" xmlns:xlink="http://www.w3.org/1999/xlink" version="1.1"><rect x="0" y="0" width="960" height="540" fill="#ffffff"></rect><path d="M600 540L617.8 527.2C635.7 514.3 671.3 488.7 680.3 463C689.3 437.3 671.7 411.7 669.3 386C667 360.3 680 334.7 683 308.8C686 283 679 257 665.7 231.2C652.3 205.3 632.7 179.7 637.3 154C642 128.3 671 102.7 678.2 77C685.3 51.3 670.7 25.7 663.3 12.8L656 0L960 0L960 12.8C960 25.7 960 51.3 960 77C960 102.7 960 128.3 960 154C960 179.7 960 205.3 960 231.2C960 257 960 283 960 308.8C960 334.7 960 360.3 960 386C960 411.7 960 437.3 960 463C960 488.7 960 514.3 960 527.2L960 540Z" fill="#edf1d6"></path><path d="M714 540L700.2 527.2C686.3 514.3 658.7 488.7 652.7 463C646.7 437.3 662.3 411.7 669.5 386C676.7 360.3 675.3 334.7 675.5 308.8C675.7 283 677.3 257 678 231.2C678.7 205.3 678.3 179.7 685.3 154C692.3 128.3 706.7 102.7 713.5 77C720.3 51.3 719.7 25.7 719.3 12.8L719 0L960 0L960 12.8C960 25.7 960 51.3 960 77C960 102.7 960 128.3 960 154C960 179.7 960 205.3 960 231.2C960 257 960 283 960 308.8C960 334.7 960 360.3 960 386C960 411.7 960 437.3 960 463C960 488.7 960 514.3 960 527.2L960 540Z" fill="#cddab6"></path><path d="M719 540L731.2 527.2C743.3 514.3 767.7 488.7 768.8 463C770 437.3 748 411.7 743.7 386C739.3 360.3 752.7 334.7 755.3 308.8C758 283 750 257 750.3 231.2C750.7 205.3 759.3 179.7 755 154C750.7 128.3 733.3 102.7 731.7 77C730 51.3 744 25.7 751 12.8L758 0L960 0L960 12.8C960 25.7 960 51.3 960 77C960 102.7 960 128.3 960 154C960 179.7 960 205.3 960 231.2C960 257 960 283 960 308.8C960 334.7 960 360.3 960 386C960 411.7 960 437.3 960 463C960 488.7 960 514.3 960 527.2L960 540Z" fill="#abc498"></path><path d="M843 540L841.7 527.2C840.3 514.3 837.7 488.7 833.3 463C829 437.3 823 411.7 827 386C831 360.3 845 334.7 840 308.8C835 283 811 257 811.8 231.2C812.7 205.3 838.3 179.7 840.7 154C843 128.3 822 102.7 816.7 77C811.3 51.3 821.7 25.7 826.8 12.8L832 0L960 0L960 12.8C960 25.7 960 51.3 960 77C960 102.7 960 128.3 960 154C960 179.7 960 205.3 960 231.2C960 257 960 283 960 308.8C960 334.7 960 360.3 960 386C960 411.7 960 437.3 960 463C960 488.7 960 514.3 960 527.2L960 540Z" fill="#87ae7d"></path><path d="M849 540L854.3 527.2C859.7 514.3 870.3 488.7 880.3 463C890.3 437.3 899.7 411.7 905.5 386C911.3 360.3 913.7 334.7 904.2 308.8C894.7 283 873.3 257 864.3 231.2C855.3 205.3 858.7 179.7 868.8 154C879 128.3 896 102.7 901.7 77C907.3 51.3 901.7 25.7 898.8 12.8L896 0L960 0L960 12.8C960 25.7 960 51.3 960 77C960 102.7 960 128.3 960 154C960 179.7 960 205.3 960 231.2C960 257 960 283 960 308.8C960 334.7 960 360.3 960 386C960 411.7 960 437.3 960 463C960 488.7 960 514.3 960 527.2L960 540Z" fill="#609966"></path></svg>