<svg id="visual" viewBox="0 0 960 540" width="960" height="540" xmlns="http://www.w3.org/2000/svg" xmlns:xlink="http://www.w3.org/1999/xlink" version="1.1"><path d="M0 36L17.8 35.5C35.7 35 71.3 34 106.8 33.2C142.3 32.3 177.7 31.7 213.2 30.7C248.7 29.7 284.3 28.3 320 28.3C355.7 28.3 391.3 29.7 426.8 30.8C462.3 32 497.7 33 533.2 33.3C568.7 33.7 604.3 33.3 640 32.5C675.7 31.7 711.3 30.3 746.8 29.8C782.3 29.3 817.7 29.7 853.2 30.8C888.7 32 924.3 34 942.2 35L960 36L960 0L942.2 0C924.3 0 888.7 0 853.2 0C817.7 0 782.3 0 746.8 0C711.3 0 675.7 0 640 0C604.3 0 568.7 0 533.2 0C497.7 0 462.3 0 426.8 0C391.3 0 355.7 0 320 0C284.3 0 248.7 0 213.2 0C177.7 0 142.3 0 106.8 0C71.3 0 35.7 0 17.8 0L0 0Z" fill="#73c7ff"></path><path d="M0 17L17.8 19.3C35.7 21.7 71.3 26.3 106.8 27C142.3 27.7 177.7 24.3 213.2 22.7C248.7 21 284.3 21 320 22.5C355.7 24 391.3 27 426.8 28.2C462.3 29.3 497.7 28.7 533.2 26.3C568.7 24 604.3 20 640 17.8C675.7 15.7 711.3 15.3 746.8 18.2C782.3 21 817.7 27 853.2 29C888.7 31 924.3 29 942.2 28L960 27L960 0L942.2 0C924.3 0 888.7 0 853.2 0C817.7 0 782.3 0 746.8 0C711.3 0 675.7 0 640 0C604.3 0 568.7 0 533.2 0C497.7 0 462.3 0 426.8 0C391.3 0 355.7 0 320 0C284.3 0 248.7 0 213.2 0C177.7 0 142.3 0 106.8 0C71.3 0 35.7 0 17.8 0L0 0Z" fill="#4fb5ff"></path><path d="M0 19L17.8 18.2C35.7 17.3 71.3 15.7 106.8 16.2C142.3 16.7 177.7 19.3 213.2 20.7C248.7 22 284.3 22 320 20.5C355.7 19 391.3 16 426.8 14.7C462.3 13.3 497.7 13.7 533.2 15.8C568.7 18 604.3 22 640 23.7C675.7 25.3 711.3 24.7 746.8 22.5C782.3 20.3 817.7 16.7 853.2 16.8C888.7 17 924.3 21 942.2 23L960 25L960 0L942.2 0C924.3 0 888.7 0 853.2 0C817.7 0 782.3 0 746.8 0C711.3 0 675.7 0 640 0C604.3 0 568.7 0 533.2 0C497.7 0 462.3 0 426.8 0C391.3 0 355.7 0 320 0C284.3 0 248.7 0 213.2 0C177.7 0 142.3 0 106.8 0C71.3 0 35.7 0 17.8 0L0 0Z" fill="#27a3ff"></path><path d="M0 16L17.8 16.5C35.7 17 71.3 18 106.8 18.3C142.3 18.7 177.7 18.3 213.2 17C248.7 15.7 284.3 13.3 320 12.7C355.7 12 391.3 13 426.8 12.7C462.3 12.3 497.7 10.7 533.2 9.8C568.7 9 604.3 9 640 10.3C675.7 11.7 711.3 14.3 746.8 14.3C782.3 14.3 817.7 11.7 853.2 11.7C888.7 11.7 924.3 14.3 942.2 15.7L960 17L960 0L942.2 0C924.3 0 888.7 0 853.2 0C817.7 0 782.3 0 746.8 0C711.3 0 675.7 0 640 0C604.3 0 568.7 0 533.2 0C497.7 0 462.3 0 426.8 0C391.3 0 355.7 0 320 0C284.3 0 248.7 0 213.2 0C177.7 0 142.3 0 106.8 0C71.3 0 35.7 0 17.8 0L0 0Z" fill="#0090ff"></path><path d="M0 12L17.8 11.7C35.7 11.3 71.3 10.7 106.8 10.2C142.3 9.7 177.7 9.3 213.2 9.7C248.7 10 284.3 11 320 11.3C355.7 11.7 391.3 11.3 426.8 10.7C462.3 10 497.7 9 533.2 8C568.7 7 604.3 6 640 5.3C675.7 4.7 711.3 4.3 746.8 5.5C782.3 6.7 817.7 9.3 853.2 10.7C888.7 12 924.3 12 942.2 12L960 12L960 0L942.2 0C924.3 0 888.7 0 853.2 0C817.7 0 782.3 0 746.8 0C711.3 0 675.7 0 640 0C604.3 0 568.7 0 533.2 0C497.7 0 462.3 0 426.8 0C391.3 0 355.7 0 320 0C284.3 0 248.7 0 213.2 0C177.7 0 142.3 0 106.8 0C71.3 0 35.7 0 17.8 0L0 0Z" fill="#177aff"></path></svg>