<svg width="44" height="33" viewBox="0 0 44 33" fill="none" xmlns="http://www.w3.org/2000/svg">
<path d="M41.8 0H2.2C1.61652 0 1.05695 0.217299 0.644365 0.604093C0.231785 0.990886 0 1.51549 0 2.0625V30.9375C0 31.4845 0.231785 32.0091 0.644365 32.3959C1.05695 32.7827 1.61652 33 2.2 33H41.8C42.3835 33 42.9431 32.7827 43.3556 32.3959C43.7682 32.0091 44 31.4845 44 30.9375V2.0625C44 1.51549 43.7682 0.990886 43.3556 0.604093C42.9431 0.217299 42.3835 0 41.8 0ZM39.6 22.6875C37.8496 22.6875 36.1708 23.3394 34.9331 24.4998C33.6954 25.6602 33 27.234 33 28.875H11C11 27.234 10.3046 25.6602 9.0669 24.4998C7.82916 23.3394 6.15043 22.6875 4.4 22.6875V10.3125C6.15043 10.3125 7.82916 9.66061 9.0669 8.50022C10.3046 7.33984 11 5.76603 11 4.125H33C33 5.76603 33.6954 7.33984 34.9331 8.50022C36.1708 9.66061 37.8496 10.3125 39.6 10.3125V22.6875Z" fill="white"/>
<path d="M22 8C17.0365 8 13 11.8122 13 16.5C13 21.1878 17.0365 25 22 25C26.9635 25 31 21.1878 31 16.5C31 11.8122 26.9635 8 22 8ZM22 20.75C19.5182 20.75 17.5 18.8439 17.5 16.5C17.5 14.1561 19.5182 12.25 22 12.25C24.4818 12.25 26.5 14.1561 26.5 16.5C26.5 18.8439 24.4818 20.75 22 20.75Z" fill="white"/>
</svg>
