<svg width="42" height="39" viewBox="0 0 42 39" fill="none" xmlns="http://www.w3.org/2000/svg">
<path d="M41.9853 11.5903C41.982 11.4494 41.9615 11.3094 41.9244 11.1728C41.9097 11.124 41.8803 11.0772 41.8614 11.0284C41.8173 10.9172 41.7774 10.8079 41.7144 10.7065C41.6808 10.6538 41.6346 10.6109 41.5947 10.5602C41.5275 10.4724 41.4624 10.3826 41.3805 10.3065C41.3322 10.2636 41.2692 10.2285 41.2167 10.1875C41.1348 10.1251 41.0592 10.0568 40.9647 10.0041C40.9563 9.99826 40.9458 9.99826 40.9353 9.99241L40.9185 9.98071L22.0626 0.24524C21.751 0.0847251 21.4007 0.00034228 21.0444 1.0391e-06C20.6881 -0.000340202 20.3375 0.0833714 20.0256 0.243289L1.0815 9.97875C1.0752 9.98461 1.0689 9.99241 1.0584 9.99826L1.0374 10.0061C0.9639 10.0451 0.9093 10.1017 0.84 10.1485C0.7644 10.2012 0.6846 10.248 0.6174 10.3085C0.5544 10.369 0.5061 10.4392 0.4515 10.5075C0.3948 10.5758 0.3318 10.6362 0.2856 10.7104C0.231 10.7943 0.2016 10.8899 0.1617 10.9816C0.1323 11.0459 0.0945 11.1064 0.0756 11.1767C0.0393319 11.3108 0.0189111 11.4482 0.0146999 11.5864C0.0125999 11.6195 0 11.6488 0 11.6839V27.2958C0 28.004 0.4137 28.6576 1.0815 29.001L19.9353 38.7306L19.9374 38.7325L19.9416 38.7345L19.9836 38.7559C20.0739 38.8028 20.1726 38.8281 20.2671 38.8613C20.3343 38.8866 20.3994 38.9198 20.4708 38.9374C20.8193 39.0209 21.1849 39.0209 21.5334 38.9374C21.6027 38.9198 21.6678 38.8866 21.7371 38.8613C21.8316 38.8281 21.9303 38.8047 22.0206 38.7559L22.0626 38.7345L22.0668 38.7325L22.0689 38.7306L40.9227 29.001C41.5863 28.6576 42 28.004 42 27.2958V11.6839C42 11.6508 41.9874 11.6234 41.9853 11.5903ZM20.9412 19.2421L6.4218 11.6976L12.222 8.71646L26.5734 16.3351L20.9412 19.2421ZM21.042 4.18235L35.5761 11.6878L30.8637 14.1207L16.5207 6.50598L21.042 4.18235ZM23.1 33.736L23.1042 22.6563L29.4 19.3825V25.3448L33.6 23.3938V17.1994L37.8 15.0162V26.1466L23.1 33.736Z" fill="white"/>
</svg>
