<svg width="492" height="54" viewBox="0 0 492 54" fill="none" xmlns="http://www.w3.org/2000/svg">
<rect width="492" height="54" fill="white"/>
<g clip-path="url(#clip0_26_212)">
<path fill-rule="evenodd" clip-rule="evenodd" d="M26.3858 16.099C26.3554 16.0991 26.3247 16.0992 26.294 16.0992C22.2103 16.1088 18.2815 17.0538 14.4774 18.9488C12.9412 22.5744 12.078 26.2586 12.041 30.0161C11.9888 33.7437 12.7781 37.5599 14.5155 41.4492C18.4965 43.1451 22.4755 44.0111 26.4523 44.0471C30.4291 43.9925 34.404 43.1079 38.3769 41.3933C40.0958 37.496 40.8669 33.6762 40.7969 29.9488C40.7421 26.1915 39.8613 22.5113 38.3078 18.8931C34.4948 17.0159 30.5615 16.0893 26.4776 16.0988C26.4471 16.0989 26.4165 16.099 26.3858 16.099Z" fill="#FEFEFE"/>
<path d="M13.8332 18.1203C17.8358 16.089 21.9939 15.0832 26.2918 15.0731C26.3225 15.0731 26.3532 15.073 26.3836 15.0729C26.4143 15.0729 26.445 15.0728 26.4754 15.0727C30.7736 15.0627 34.9362 16.049 38.9487 18.0616L39.1939 18.3177C40.8397 22.1166 41.782 25.9929 41.8372 29.9314C41.8374 30.0067 41.8375 30.0672 41.8377 30.1425L41.8384 30.4142C41.8319 34.2022 41.0153 38.0672 39.2503 41.9949L38.9755 42.2522C34.8042 44.0878 30.6306 45.0181 26.455 45.0732C22.2795 45.0376 18.1013 44.1269 13.9215 42.3108L13.6455 42.0548C11.8618 38.1354 11.0266 34.2743 11.0024 30.4863L11.0017 30.2147C11.0015 30.1394 11.0014 30.0788 11.0012 30.0036C11.0377 26.0649 11.9616 22.1841 13.5892 18.3776L13.8332 18.1203ZM26.3861 16.099C26.3557 16.0991 26.325 16.0992 26.2943 16.0992C22.2106 16.1088 18.2818 17.0538 14.4777 18.9488C12.9415 22.5744 12.0783 26.2586 12.0413 30.0161C11.9891 33.7437 12.7783 37.5599 14.5158 41.4492C18.4968 43.1451 22.4758 44.0111 26.4526 44.0471C30.4294 43.9925 34.4043 43.1079 38.3772 41.3933C40.0961 37.496 40.8672 33.6762 40.7972 29.9488C40.7424 26.1915 39.8616 22.5113 38.3081 18.8931C34.4951 17.0159 30.5618 16.0893 26.4779 16.0988C26.4474 16.0989 26.4168 16.099 26.3861 16.099Z" fill="#B7B7B7"/>
<path fill-rule="evenodd" clip-rule="evenodd" d="M26.7143 38.4478C26.4935 35.5659 26.624 32.5625 25.7455 29.8182C24.9288 27.2546 21.8508 25.798 21.783 22.9762C21.7166 20.773 23.4083 18.2188 26.5898 18.2114C29.5723 18.1894 31.4283 20.3278 31.6479 22.7117C31.9147 25.4727 28.5233 27.3368 27.6424 29.9646C26.7312 32.6528 26.9982 35.6252 26.7143 38.4478Z" fill="#B7B7B7"/>
<path fill-rule="evenodd" clip-rule="evenodd" d="M27.8904 37.7509C27.7623 35.2462 27.7566 32.8468 28.4551 30.7171C29.2293 28.3009 30.8459 26.2599 33.3222 25.5899C35.0189 25.1334 37.5167 27.0892 37.1237 29.0974C36.7911 30.7129 35.1589 32.6181 32.5286 32.8356C31.3052 32.944 30.7875 33.9111 30.0241 34.4712C33.4496 34.1312 35.6642 32.798 37.2058 31.406C37.438 32.5824 37.5956 34.559 36.6642 35.2403C34.8318 36.5271 33.1315 35.49 30.9763 36.0986C29.7687 36.4487 29.021 37.2049 27.8904 37.7509Z" fill="#B7B7B7"/>
<path fill-rule="evenodd" clip-rule="evenodd" d="M25.5501 37.7564C25.6818 35.2512 25.6609 32.8518 24.9674 30.7254C24.1818 28.3128 22.5555 26.2794 20.0762 25.621C18.3771 25.1725 15.8734 27.14 16.2912 29.1462C16.6315 30.7602 18.2727 32.6577 20.904 32.8629C22.1127 32.9656 22.6502 33.9302 23.4163 34.4867C19.9741 34.1629 17.7683 32.84 16.2201 31.4553C15.9935 32.6327 15.8453 34.61 16.78 35.287C18.6185 36.5652 20.3138 35.5201 22.4719 36.1187C23.6811 36.4631 24.4169 37.2158 25.5501 37.7564Z" fill="#B7B7B7"/>
<path fill-rule="evenodd" clip-rule="evenodd" d="M33.7116 41.4647L33.7106 41.0572L34.0165 40.9809L33.7094 40.5288L33.7076 39.7744L35.0886 41.6576L34.5995 41.7796L34.262 41.3123L33.7116 41.4647ZM33.7076 39.7744L33.7094 40.5288L33.4947 40.2277L33.405 41.1332L33.7106 41.0572L33.7116 41.4647L33.3601 41.5408L33.3001 42.0993L32.811 42.2213L33.1264 39.7605L33.6155 39.6388L33.7076 39.7744ZM29.1566 42.7882L29.1557 42.3959L29.2627 42.3957C29.431 42.38 29.538 42.3648 29.5838 42.3497C29.6449 42.3342 29.7062 42.2888 29.7365 42.2435C29.7822 42.1831 29.7976 42.1228 29.7974 42.0472C29.7817 41.9717 29.7664 41.9114 29.7204 41.8663C29.6896 41.8211 29.6284 41.7912 29.5673 41.7761C29.5058 41.7612 29.3684 41.7615 29.1542 41.777L29.1533 41.3848C29.2758 41.3845 29.352 41.3691 29.3827 41.369C29.4593 41.3538 29.5203 41.3084 29.566 41.263C29.6118 41.2176 29.6269 41.1573 29.6115 41.0818C29.6113 41.0062 29.5805 40.946 29.5345 40.9158C29.5037 40.8709 29.4426 40.8408 29.3508 40.841C29.3204 40.8411 29.259 40.8412 29.152 40.8565L29.1511 40.4642C29.3194 40.4486 29.4416 40.4483 29.5182 40.4634C29.61 40.4632 29.7019 40.4929 29.7783 40.538C29.855 40.5681 29.9162 40.6283 29.9778 40.7037C30.0238 40.7791 30.0545 40.8696 30.0702 40.9751C30.0856 41.0807 30.0552 41.1863 30.0095 41.277C29.9638 41.3676 29.8877 41.4434 29.7806 41.5039C29.9338 41.5338 30.0562 41.5938 30.133 41.6842C30.225 41.7745 30.2711 41.88 30.2866 42.0158C30.2869 42.1216 30.2719 42.2272 30.2415 42.3328C30.1959 42.4388 30.1349 42.5142 30.0585 42.59C29.9669 42.6504 29.8752 42.6959 29.7531 42.7265C29.6766 42.7417 29.4778 42.7571 29.1873 42.7881L29.1566 42.7882ZM32.0446 41.5139L32.5189 41.573C32.4888 41.8298 32.4127 42.0411 32.2754 42.1923C32.1381 42.3284 31.9395 42.4347 31.695 42.4803C31.3893 42.5263 31.1138 42.4666 30.8839 42.3013C30.6388 42.1208 30.5006 41.8644 30.4231 41.5024C30.3611 41.1253 30.4063 40.8082 30.5738 40.5665C30.7264 40.3247 30.9707 40.1733 31.2918 40.112C31.5822 40.066 31.8118 40.1108 32.0261 40.2461C32.1488 40.3214 32.2561 40.4417 32.3331 40.6226L31.8898 40.8048C31.8436 40.6993 31.7671 40.6089 31.6752 40.5639C31.5678 40.5039 31.4608 40.4888 31.3386 40.5044C31.1703 40.5348 31.048 40.6256 30.9566 40.7617C30.8654 40.9127 30.8504 41.1092 30.897 41.3807C30.9587 41.6673 31.051 41.8632 31.1737 41.9684C31.2964 42.074 31.4494 42.1189 31.6175 42.0882C31.7399 42.0577 31.8315 41.9972 31.9079 41.9064C31.984 41.8157 32.0295 41.6798 32.0446 41.5139ZM29.1511 40.4642L29.152 40.8565C29.0909 40.8566 29.0296 40.872 28.9533 40.8722L28.678 40.9028L28.7251 41.4311L29.0463 41.4001C29.0767 41.4 29.1226 41.3999 29.1533 41.3848L29.1542 41.777C29.1542 41.777 29.1542 41.777 29.139 41.7771L28.7719 41.8082L28.8193 42.4267L29.1557 42.3959L29.1566 42.7882L28.3921 42.8655L28.1723 40.5571L29.1052 40.4793C29.1204 40.4643 29.1359 40.4643 29.1511 40.4642ZM26.2026 41.9953L26.2017 41.6028C26.3087 41.6026 26.37 41.5874 26.4159 41.5721C26.4769 41.5569 26.5227 41.5115 26.5685 41.4661C26.599 41.4058 26.6141 41.3455 26.614 41.2849C26.629 41.1943 26.5984 41.1341 26.5524 41.0739C26.5063 41.0135 26.4449 40.9836 26.3685 40.9685C26.3226 40.9686 26.2767 40.9537 26.2001 40.9539L26.1992 40.5617C26.4287 40.5612 26.5664 40.5758 26.643 40.6057C26.7808 40.6356 26.888 40.7109 26.98 40.8315C27.0721 40.9519 27.1184 41.1026 27.1033 41.2838C27.1036 41.4196 27.0735 41.5405 27.0279 41.6462C26.9667 41.7369 26.9058 41.8126 26.8296 41.873C26.738 41.9185 26.6614 41.949 26.5697 41.9792C26.478 41.9947 26.3555 41.995 26.2026 41.9953ZM26.1992 40.5617L26.2001 40.9539C26.1542 40.954 26.0931 40.9542 26.0166 40.9544L25.7871 40.9399L25.7886 41.6038L26.0336 41.6032C26.0947 41.6031 26.1558 41.6029 26.2017 41.6028L26.2026 41.9953C26.1722 41.9954 26.1263 41.9955 26.0804 41.9956L25.7744 41.9963L25.7612 42.8717L25.2871 42.8575L25.3275 40.5485L26.077 40.562C26.1229 40.5619 26.1688 40.5618 26.1992 40.5617ZM21.7816 41.7793L21.78 41.0701C21.9177 41.0998 22.0095 41.0996 22.0554 41.0995C22.1165 41.0843 22.1623 41.0692 22.2081 41.0236C22.2387 40.9782 22.269 40.9328 22.2843 40.8575C22.2993 40.7819 22.284 40.7217 22.2531 40.6612C22.2223 40.601 22.1611 40.5711 22.0848 40.541C22.054 40.5261 21.947 40.5111 21.7786 40.4815L21.7776 40.089L21.9765 40.1188C22.2213 40.1635 22.3897 40.2084 22.4969 40.2684C22.6043 40.3284 22.6808 40.4188 22.727 40.5395C22.7731 40.645 22.7887 40.7808 22.7586 40.9167C22.7283 41.0829 22.6523 41.2189 22.53 41.3098C22.4233 41.4006 22.255 41.4462 22.041 41.4467C22.133 41.5218 22.2095 41.5972 22.2555 41.6723C22.3169 41.763 22.3786 41.8985 22.4553 42.0947L22.6556 42.592L22.1046 42.4877L21.8586 41.93C21.8278 41.8847 21.8124 41.8245 21.7816 41.7793ZM23.1244 40.3425L23.5834 40.3867L23.4791 41.6395C23.4644 41.8356 23.4647 41.9715 23.4648 42.0168C23.4803 42.1223 23.5263 42.1977 23.5879 42.2579C23.6643 42.3332 23.7562 42.3633 23.8939 42.378C24.0316 42.3927 24.1385 42.3624 24.1998 42.317C24.276 42.2715 24.3218 42.2109 24.3523 42.1355C24.3673 42.0599 24.3822 41.924 24.3972 41.7429L24.5012 40.4598L24.9754 40.504L24.8713 41.7118C24.8565 41.9985 24.8266 42.1947 24.7809 42.3003C24.7505 42.4063 24.6896 42.512 24.6287 42.5724C24.5523 42.6481 24.4454 42.7086 24.323 42.7392C24.2161 42.7847 24.0632 42.7851 23.8796 42.7703C23.6501 42.7558 23.4817 42.7109 23.3745 42.6509C23.2674 42.5906 23.1754 42.5155 23.1139 42.4401C23.0525 42.3497 23.0216 42.2592 23.0062 42.1687C22.9907 42.0329 22.9902 41.8367 23.0048 41.58L23.1244 40.3425ZM19.4092 41.0301L19.5 40.6527L20.4948 40.907L20.252 41.7979C20.13 41.8737 19.9772 41.9194 19.763 41.9349C19.5642 41.9503 19.3806 41.9358 19.1969 41.8909C18.9521 41.8312 18.7531 41.7261 18.6151 41.5903C18.4616 41.4398 18.3693 41.2589 18.323 41.0629C18.2921 40.8519 18.2916 40.6405 18.3522 40.4289C18.4127 40.2027 18.5195 40.006 18.672 39.8398C18.8093 39.6884 18.9927 39.5974 19.2066 39.5519C19.3748 39.5062 19.5737 39.5208 19.7881 39.5806C20.0636 39.6555 20.2778 39.7605 20.4007 39.9264C20.5233 40.0769 20.5851 40.2729 20.5701 40.4843L20.0959 40.4551C20.0956 40.3343 20.065 40.2288 19.9882 40.1384C19.9114 40.0631 19.8194 39.988 19.6817 39.958C19.4828 39.9132 19.3147 39.9289 19.1618 40.0195C19.0091 40.1105 18.9026 40.2921 18.8266 40.5337C18.7509 40.8055 18.7666 41.0166 18.8436 41.1825C18.9358 41.3482 19.0734 41.4537 19.2571 41.4985C19.3644 41.5283 19.4562 41.5281 19.5632 41.5278C19.6702 41.5126 19.7619 41.4821 19.8536 41.4519L19.9295 41.1647L19.4092 41.0301ZM21.7776 40.089L20.9819 39.955L20.5898 42.2349L21.0486 42.3091L21.2147 41.3581L21.3217 41.3729C21.4291 41.3876 21.5054 41.4177 21.5514 41.4326C21.5973 41.4628 21.6281 41.508 21.6741 41.5532C21.6894 41.5984 21.7355 41.6736 21.7816 41.7793L21.78 41.0701C21.7341 41.0702 21.6881 41.055 21.627 41.0552L21.2904 40.9957L21.3809 40.4219L21.7479 40.4816C21.7634 40.4815 21.7786 40.4815 21.7786 40.4815L21.7776 40.089Z" fill="#B7B7B7"/>
<path fill-rule="evenodd" clip-rule="evenodd" d="M94.6703 37.0962L94.6602 32.8407L96.5568 32.8362L96.5389 25.3509L94.6513 29.0981L94.6291 19.7567L102.078 19.7393L104.026 41.2546L96.5768 41.2721L96.5669 37.0918L94.6703 37.0962ZM94.6291 19.7567L94.6513 29.0981L92.7636 32.8451L94.6602 32.8407L94.6703 37.0962L91.0912 37.1046L89.6323 41.0619L85.0128 41.0728L85.0011 36.153L90.1297 25.1698L89.0745 25.1723L91.9982 19.7629L94.6291 19.7567ZM84.9792 26.9477L87.2759 21.5395L84.9633 20.2774L84.9792 26.9477ZM66.6042 24.9232C66.7097 24.304 66.7083 23.7004 66.6 23.1273L66.6042 24.9232ZM84.9633 20.2774L84.9792 26.9477L84.6752 27.6726C80.1094 24.4688 73.3861 27.4123 73.0118 30.8085C72.6379 34.3561 75.3826 37.2169 82.3676 35.0575L79.9813 41.4015C70.7606 42.4339 67.1729 38.8356 66.6273 34.6266L66.6216 32.2421C66.7567 31.1401 67.0447 30.068 67.4402 29.0713C71.9563 17.9234 79.3351 20.4111 82.1335 20.1935L82.5436 18.955L84.9633 20.2774ZM85.0011 36.153L82.7032 41.0782L85.0128 41.0728L85.0011 36.153ZM58.3523 40.9993C63.2905 40.0219 68.1252 34.1553 63.2502 29.5036C65.1444 28.503 66.3179 26.7044 66.6042 24.9232L66.6 23.1273C66.2591 21.2717 64.8024 19.7662 62.0644 19.7274L58.3015 19.6606L58.3114 23.7956L59.8715 23.792C61.5386 23.7881 61.3347 28.0442 59.2546 28.049L58.3215 28.0512L58.3293 31.3109C60.5788 31.7282 59.7907 34.8087 58.3399 35.7626L58.3523 40.9993ZM66.6273 34.6266L66.6216 32.2421C66.5318 33.042 66.5337 33.842 66.6273 34.6266ZM51.7852 19.54L48.7552 25.3722L50.1162 25.2634L46.4831 41.1629L56.9913 41.1383C57.45 41.1373 57.8936 41.0909 58.3523 40.9993L58.3399 35.7626C58.0801 35.9443 57.7898 36.0506 57.4993 36.0513L53.7211 36.0601L54.964 31.2735L57.7936 31.2669C57.9927 31.2665 58.176 31.281 58.3293 31.3109L58.3215 28.0512L55.6907 28.0574L56.7358 23.7993L58.3114 23.7956L58.3015 19.6606L51.7852 19.54Z" fill="#B7B7B7"/>
</g>
<g clip-path="url(#clip1_26_212)">
<path d="M134.134 34.677C134.134 33.0379 134.105 31.6656 134.016 30.4379H137.134L137.282 32.5444H137.369C138.075 31.4326 139.369 30.115 141.781 30.115C143.665 30.115 145.134 31.1696 145.752 32.7475H145.812C146.313 31.9586 146.9 31.3727 147.575 30.9652C148.37 30.408 149.284 30.115 150.459 30.115C152.843 30.115 155.253 31.7229 155.253 36.2875V44.6771H151.723V36.8109C151.723 34.444 150.899 33.0379 149.164 33.0379C147.929 33.0379 147.016 33.918 146.635 34.9413C146.529 35.3318 146.47 35.7334 146.458 36.1378V44.6784H142.929V36.4294C142.929 34.4453 142.135 33.0392 140.457 33.0392C139.107 33.0392 138.195 34.0937 137.868 35.0858C137.722 35.4373 137.662 35.8487 137.662 36.2549V44.6784H134.134V34.677ZM169.006 41.2583C169.006 42.5433 169.065 43.7996 169.21 44.6784H165.945L165.711 43.1005H165.622C164.739 44.2123 163.238 44.9987 161.389 44.9987C158.505 44.9987 156.887 42.9247 156.887 40.7596C156.887 37.1598 160.091 35.3501 165.388 35.3787V35.1457C165.388 34.2083 165.005 32.659 162.474 32.659C161.061 32.659 159.592 33.0991 158.621 33.711L157.915 31.3714C158.975 30.7269 160.828 30.1137 163.091 30.1137C167.682 30.1137 169.007 33.0118 169.007 36.1078L169.006 41.2583ZM165.475 37.7209C162.914 37.661 160.474 38.2169 160.474 40.3808C160.474 41.7842 161.389 42.4287 162.535 42.4287C163.974 42.4287 165.035 41.49 165.358 40.468C165.438 40.2124 165.477 39.9464 165.476 39.679L165.475 37.7209ZM171.505 34.677C171.505 33.0379 171.475 31.6656 171.389 30.4379H174.563L174.738 32.5757H174.827C175.444 31.4625 177.004 30.115 179.386 30.115C181.888 30.115 184.475 31.7229 184.475 36.2289V44.6771H180.857V36.6377C180.857 34.5911 180.091 33.0366 178.121 33.0366C176.682 33.0366 175.679 34.0612 175.298 35.1444C175.18 35.4647 175.151 35.9047 175.151 36.3109V44.6758H171.503L171.505 34.677ZM200.162 24.7172V40.6724C200.162 42.1344 200.222 43.7163 200.28 44.6784H197.046L196.898 42.4287H196.838C195.987 44.0066 194.249 45 192.163 45C188.749 45 186.045 42.1058 186.045 37.7222C186.014 32.9545 189.013 30.1163 192.457 30.1163C194.427 30.1163 195.839 30.9353 196.486 31.9924H196.547V24.7185H200.163L200.162 24.7172ZM196.546 36.3734C196.546 36.0831 196.517 35.7316 196.457 35.4373C196.134 34.0365 194.989 32.8947 193.34 32.8947C191.017 32.8947 189.72 34.9426 189.72 37.6024C189.72 40.2024 191.015 42.1045 193.311 42.1045C194.779 42.1045 196.075 41.1085 196.427 39.5592C196.516 39.239 196.547 38.8861 196.547 38.5073L196.546 36.3734ZM202.721 44.6784V30.4379H206.371V44.6784H202.721ZM208.928 35.0298C208.928 33.1004 208.9 31.7242 208.813 30.4392H211.96L212.075 33.1563H212.194C212.9 31.1397 214.575 30.4392 216.109 30.4392C216.461 30.4392 216.666 30.3793 216.959 30.4392V33.599C216.612 33.5227 216.258 33.4834 215.902 33.4818C214.163 33.4818 212.987 34.5937 212.664 36.199C212.593 36.5664 212.554 36.9393 212.548 37.3134V44.6797H208.928V35.0298ZM218.638 44.6784V30.4379H222.283V44.6784H218.638Z" fill="#B7B7B7"/>
<path d="M244.988 15.3772C243.181 13.3293 241.261 14.2562 239.736 15.0101C239.094 15.3251 234.462 17.9355 234.462 17.9355C231.923 18.9757 229.947 17.8405 229.172 16.8848C229.098 16.7942 229.031 16.698 228.971 16.5971L228.791 16.286C228.485 15.7608 228.146 15.2558 227.774 14.7744C227.549 14.4826 227.305 14.2056 227.043 13.9451C225.307 12.2018 222.532 10.9819 217.893 13.1978C215.696 14.4633 208.541 18.5266 208.541 18.5266C205.853 19.6267 203.796 18.287 203.128 17.3041C203.098 17.2673 203.072 17.2276 203.05 17.1856L202.962 17.0372L202.509 16.3003C202.304 15.9775 202.085 15.6642 201.851 15.3616C201.624 15.0716 201.379 14.7951 201.119 14.5336C199.394 12.8007 196.634 11.5834 192.035 13.7576C189.255 15.3355 182.788 19.0109 182.788 19.0109L182.785 19.0135L178.052 21.702L180.501 24.6912C181.532 25.6677 183.469 27.269 186.465 25.9189C186.465 25.9189 194.736 21.1578 194.769 21.1434C201.84 17.2858 205.329 20.9716 206.872 23.4283C206.925 23.5051 206.968 23.5885 207.017 23.6627L207.02 23.6666C207.039 23.6965 207.051 23.7239 207.068 23.7525L207.242 24.0363C207.994 25.169 209.179 25.9007 210.592 25.8668C211.372 25.8512 211.901 25.5987 212.671 25.1729L220.673 20.5589L220.69 20.5511C227.85 16.6466 231.398 20.5732 232.913 23.0299C233.031 23.2422 233.165 23.4453 233.302 23.634C234.053 24.6456 235.088 25.3083 236.403 25.2758C237.271 25.2588 238.244 24.7407 238.389 24.6456L247.983 19.1411C247.985 19.1437 247.006 17.6712 244.988 15.3772Z" fill="#B7B7B7"/>
</g>
<g clip-path="url(#clip2_26_212)">
<path d="M326.306 36.1887C326.524 36.1887 326.711 36.1635 326.869 36.1131C327.026 36.0627 327.155 35.9923 327.255 35.902C327.357 35.8091 327.432 35.7003 327.479 35.5755C327.526 35.4481 327.55 35.3087 327.55 35.1574C327.55 34.8628 327.446 34.6305 327.239 34.4606C327.032 34.2881 326.721 34.2018 326.306 34.2018H325.086V36.1887L326.306 36.1887ZM325.086 31.7052V33.6523H326.093C326.309 33.6523 326.495 33.6284 326.652 33.5807C326.812 33.5329 326.944 33.4665 327.046 33.3816C327.151 33.2966 327.228 33.1944 327.278 33.0749C327.328 32.9528 327.353 32.8201 327.353 32.6768C327.353 32.3397 327.253 32.0941 327.054 31.9401C326.854 31.7835 326.545 31.7052 326.125 31.7052L325.086 31.7052ZM326.125 31.096C326.471 31.096 326.769 31.1305 327.018 31.1995C327.27 31.2685 327.476 31.3667 327.636 31.4942C327.799 31.6216 327.918 31.7782 327.995 31.964C328.071 32.1472 328.109 32.3542 328.109 32.5852C328.109 32.7259 328.086 32.8612 328.042 32.9913C328 33.1187 327.936 33.2382 327.849 33.3497C327.762 33.4612 327.652 33.562 327.518 33.6523C327.387 33.7399 327.232 33.8116 327.054 33.8673C327.468 33.9469 327.779 34.0969 327.987 34.3173C328.197 34.5349 328.302 34.8216 328.302 35.1773C328.302 35.4189 328.257 35.6392 328.168 35.8383C328.081 36.0374 327.953 36.2086 327.782 36.352C327.614 36.4953 327.407 36.6068 327.16 36.6864C326.913 36.7634 326.633 36.8019 326.318 36.8019H324.326V31.096H326.125Z" fill="#B7B7B7"/>
<path d="M332.442 34.6836L331.557 32.3622C331.53 32.2932 331.503 32.2135 331.474 32.1233C331.445 32.0304 331.417 31.9322 331.391 31.8286C331.336 32.0437 331.28 32.2228 331.222 32.3662L330.336 34.6836H332.442ZM334.032 36.8019H333.442C333.374 36.8019 333.319 36.7847 333.277 36.7502C333.235 36.7157 333.203 36.6719 333.182 36.6188L332.655 35.2411H330.124L329.596 36.6188C329.581 36.6665 329.551 36.709 329.506 36.7462C329.461 36.7833 329.406 36.8019 329.341 36.8019H328.75L331.006 31.096H331.777L334.032 36.8019Z" fill="#B7B7B7"/>
<path d="M339.456 31.096V36.8019H339.074C339.014 36.8019 338.963 36.7913 338.921 36.7701C338.881 36.7488 338.842 36.713 338.803 36.6625L335.54 32.3622C335.545 32.4286 335.549 32.4936 335.552 32.5573C335.554 32.621 335.555 32.6807 335.555 32.7365V36.8019H334.886V31.096H335.28C335.314 31.096 335.343 31.0986 335.367 31.1039C335.39 31.1065 335.411 31.1131 335.43 31.1238C335.448 31.1318 335.466 31.1451 335.485 31.1637C335.503 31.1796 335.523 31.2008 335.544 31.2273L338.807 35.5237C338.801 35.4547 338.796 35.3883 338.791 35.3246C338.788 35.2583 338.787 35.1959 338.787 35.1375V31.0959L339.456 31.096Z" fill="#B7B7B7"/>
<path d="M341.766 33.5966H342.054C342.153 33.5966 342.233 33.5846 342.294 33.5607C342.354 33.5342 342.409 33.4904 342.459 33.4293L344.337 31.2792C344.389 31.2101 344.444 31.1623 344.502 31.1358C344.56 31.1093 344.63 31.096 344.714 31.096H345.36L343.211 33.5528C343.158 33.6165 343.107 33.6696 343.057 33.712C343.01 33.7518 342.959 33.785 342.904 33.8116C342.975 33.8355 343.039 33.8713 343.097 33.9191C343.154 33.9642 343.211 34.0239 343.266 34.0983L345.509 36.8019H344.848C344.798 36.8019 344.755 36.7993 344.718 36.794C344.684 36.786 344.654 36.7754 344.628 36.7621C344.602 36.7462 344.578 36.7289 344.557 36.7104C344.539 36.6891 344.52 36.6653 344.502 36.6387L342.558 34.3731C342.505 34.3067 342.449 34.2603 342.388 34.2337C342.328 34.2045 342.236 34.1899 342.113 34.1899H341.766V36.802H341.007V31.0961H341.766V33.5966Z" fill="#B7B7B7"/>
<path d="M351.342 31.9879C351.319 32.0277 351.293 32.0582 351.264 32.0795C351.238 32.0981 351.205 32.1073 351.165 32.1073C351.121 32.1073 351.068 32.0848 351.008 32.0397C350.948 31.9946 350.871 31.9455 350.78 31.8924C350.69 31.8366 350.582 31.7862 350.453 31.741C350.327 31.6959 350.174 31.6734 349.992 31.6734C349.822 31.6734 349.671 31.6973 349.54 31.745C349.411 31.7901 349.302 31.8525 349.213 31.9322C349.127 32.0118 349.061 32.106 349.016 32.2149C348.972 32.3211 348.949 32.4365 348.949 32.5613C348.949 32.7206 348.987 32.8533 349.064 32.9595C349.142 33.063 349.245 33.1519 349.371 33.2262C349.499 33.3006 349.643 33.3656 349.804 33.4214C349.966 33.4745 350.132 33.5302 350.299 33.5886C350.47 33.647 350.635 33.7134 350.795 33.7877C350.958 33.8594 351.102 33.9509 351.228 34.0624C351.357 34.1739 351.459 34.3106 351.535 34.4726C351.614 34.6345 351.653 34.8336 351.653 35.0698C351.653 35.3194 351.611 35.5543 351.527 35.7746C351.444 35.9923 351.32 36.1821 351.158 36.344C350.997 36.5059 350.799 36.6333 350.563 36.7263C350.33 36.8192 350.063 36.8656 349.764 36.8656C349.397 36.8656 349.064 36.7993 348.764 36.6665C348.465 36.5311 348.209 36.3493 347.997 36.121L348.217 35.7547C348.238 35.7255 348.263 35.7016 348.292 35.683C348.324 35.6618 348.358 35.6512 348.394 35.6512C348.429 35.6512 348.467 35.6658 348.509 35.695C348.553 35.7215 348.603 35.756 348.658 35.7985C348.713 35.841 348.776 35.8874 348.847 35.9379C348.918 35.9883 348.998 36.0347 349.087 36.0772C349.179 36.1197 349.283 36.1555 349.398 36.1847C349.514 36.2113 349.643 36.2246 349.788 36.2246C349.969 36.2246 350.13 36.1993 350.272 36.1489C350.414 36.0985 350.533 36.0282 350.63 35.9379C350.73 35.845 350.806 35.7348 350.858 35.6074C350.911 35.48 350.937 35.338 350.937 35.1813C350.937 35.0088 350.898 34.8681 350.819 34.7593C350.743 34.6478 350.642 34.5549 350.516 34.4805C350.39 34.4062 350.246 34.3438 350.083 34.2934C349.92 34.2403 349.755 34.1872 349.587 34.1341C349.419 34.0784 349.254 34.0147 349.091 33.943C348.928 33.8713 348.784 33.7784 348.658 33.6643C348.532 33.5501 348.43 33.4081 348.351 33.2382C348.275 33.0657 348.237 32.8533 348.237 32.6011C348.237 32.3994 348.275 32.2043 348.351 32.0158C348.43 31.8273 348.543 31.6601 348.69 31.5141C348.839 31.3681 349.022 31.2513 349.237 31.1637C349.455 31.0761 349.704 31.0323 349.985 31.0323C350.299 31.0323 350.585 31.0827 350.843 31.1836C351.102 31.2845 351.331 31.4305 351.527 31.6216L351.342 31.9879Z" fill="#B7B7B7"/>
<path d="M354.842 34.5283V36.8019H354.078V34.5283L352.012 31.096H352.681C352.749 31.096 352.803 31.1132 352.842 31.1477C352.881 31.1796 352.916 31.222 352.944 31.2751L354.235 33.493C354.283 33.5859 354.326 33.6735 354.365 33.7558C354.405 33.8354 354.439 33.9164 354.468 33.9987C354.496 33.9164 354.529 33.8354 354.566 33.7558C354.603 33.6735 354.643 33.5859 354.688 33.493L355.975 31.2751C355.999 31.23 356.031 31.1889 356.073 31.1517C356.115 31.1146 356.169 31.096 356.235 31.096H356.908L354.842 34.5283Z" fill="#B7B7B7"/>
<path d="M360.19 34.6836L359.305 32.3622C359.279 32.2932 359.251 32.2135 359.222 32.1233C359.193 32.0304 359.166 31.9322 359.14 31.8286C359.084 32.0437 359.028 32.2228 358.97 32.3662L358.085 34.6836H360.19ZM361.781 36.8019H361.19C361.122 36.8019 361.067 36.7847 361.025 36.7502C360.983 36.7157 360.951 36.6719 360.93 36.6188L360.403 35.2411H357.872L357.345 36.6188C357.329 36.6665 357.299 36.709 357.254 36.7462C357.21 36.7833 357.155 36.8019 357.089 36.8019H356.499L358.754 31.096H359.525L361.781 36.8019Z" fill="#B7B7B7"/>
<path d="M364.197 33.8594C364.418 33.8594 364.612 33.8328 364.78 33.7797C364.95 33.724 365.092 33.647 365.205 33.5488C365.32 33.4479 365.407 33.3284 365.465 33.1904C365.522 33.0524 365.551 32.8997 365.551 32.7325C365.551 32.3927 365.441 32.1366 365.221 31.964C365 31.7915 364.67 31.7052 364.229 31.7052H363.394V33.8594H364.197ZM366.803 36.8019H366.126C365.987 36.8019 365.884 36.7475 365.819 36.6386L364.355 34.6C364.31 34.5363 364.262 34.4911 364.209 34.4646C364.159 34.4354 364.08 34.4208 363.973 34.4208H363.394V36.8019H362.635V31.096H364.229C364.586 31.096 364.894 31.1332 365.154 31.2075C365.413 31.2792 365.627 31.384 365.795 31.522C365.966 31.6601 366.092 31.8273 366.173 32.0238C366.254 32.2175 366.295 32.4352 366.295 32.6768C366.295 32.8785 366.264 33.067 366.201 33.2422C366.138 33.4174 366.046 33.5753 365.925 33.716C365.807 33.8541 365.661 33.9722 365.488 34.0704C365.318 34.1686 365.123 34.2429 364.906 34.2934C365.003 34.3491 365.087 34.4301 365.158 34.5363L366.803 36.8019Z" fill="#B7B7B7"/>
<path d="M368.44 36.8019H367.677V31.096H368.44V36.8019Z" fill="#B7B7B7"/>
<path d="M372.986 34.6836L372.101 32.3622C372.074 32.2932 372.047 32.2135 372.018 32.1233C371.989 32.0304 371.962 31.9322 371.935 31.8286C371.88 32.0437 371.824 32.2228 371.766 32.3662L370.88 34.6836H372.986ZM374.576 36.8019H373.986C373.918 36.8019 373.863 36.7847 373.821 36.7502C373.779 36.7157 373.747 36.6719 373.726 36.6188L373.199 35.2411H370.668L370.14 36.6188C370.125 36.6665 370.095 36.709 370.05 36.7462C370.005 36.7833 369.95 36.8019 369.885 36.8019H369.294L371.55 31.096H372.321L374.576 36.8019Z" fill="#B7B7B7"/>
<path d="M380 31.096V36.8019H379.236V34.2058H376.194V36.8019H375.43V31.096H376.194V33.6404H379.236V31.096H380Z" fill="#B7B7B7"/>
<path d="M325.09 44.7655H324.326V39.0596H325.09V44.7655Z" fill="#B7B7B7"/>
<path d="M331.21 39.0596V44.7655H330.828C330.768 44.7655 330.717 44.7549 330.675 44.7337C330.636 44.7124 330.596 44.6766 330.557 44.6262L327.294 40.3258C327.299 40.3922 327.303 40.4572 327.306 40.5209C327.308 40.5846 327.31 40.6444 327.31 40.7001V44.7655H326.641V39.0596H327.034C327.068 39.0596 327.097 39.0622 327.121 39.0676C327.144 39.0701 327.165 39.0767 327.184 39.0875C327.202 39.0954 327.22 39.1087 327.239 39.1273C327.257 39.1432 327.277 39.1644 327.298 39.191L330.561 43.4873C330.556 43.4183 330.55 43.3519 330.545 43.2882C330.542 43.2219 330.541 43.1595 330.541 43.1011V39.0595L331.21 39.0596Z" fill="#B7B7B7"/>
<path d="M337.649 41.9145C337.649 42.3419 337.582 42.7308 337.449 43.0812C337.315 43.4316 337.126 43.7316 336.882 43.9811C336.638 44.2306 336.344 44.4244 336 44.5624C335.659 44.6978 335.281 44.7655 334.867 44.7655H332.761V39.0596H334.867C335.281 39.0596 335.659 39.1286 336 39.2667C336.344 39.402 336.638 39.5958 336.882 39.848C337.126 40.0975 337.315 40.3975 337.449 40.7479C337.582 41.0983 337.649 41.4872 337.649 41.9145ZM336.866 41.9145C336.866 41.5641 336.819 41.2509 336.724 40.9748C336.63 40.6988 336.496 40.4652 336.323 40.274C336.15 40.0829 335.94 39.9369 335.693 39.836C335.447 39.7352 335.171 39.6847 334.867 39.6847H333.525V44.1404H334.867C335.171 44.1404 335.447 44.0899 335.693 43.9891C335.94 43.8882 336.15 43.7435 336.323 43.5551C336.496 43.3639 336.63 43.1303 336.724 42.8543C336.819 42.5782 336.866 42.2649 336.866 41.9145Z" fill="#B7B7B7"/>
<path d="M344.069 41.9145C344.069 42.3419 344.002 42.7348 343.868 43.0932C343.734 43.4489 343.545 43.7555 343.301 44.0129C343.057 44.2704 342.764 44.4709 342.42 44.6142C342.079 44.7549 341.701 44.8252 341.286 44.8252C340.872 44.8252 340.494 44.7549 340.153 44.6142C339.812 44.4709 339.519 44.2704 339.275 44.0129C339.031 43.7555 338.842 43.4489 338.708 43.0932C338.574 42.7348 338.507 42.3419 338.507 41.9145C338.507 41.4872 338.574 41.0956 338.708 40.7399C338.842 40.3815 339.031 40.0736 339.275 39.8161C339.519 39.556 339.812 39.3542 340.153 39.2109C340.494 39.0676 340.872 38.9959 341.286 38.9959C341.701 38.9959 342.079 39.0676 342.42 39.2109C342.764 39.3542 343.057 39.556 343.301 39.8161C343.545 40.0736 343.734 40.3815 343.868 40.7399C344.002 41.0956 344.069 41.4872 344.069 41.9145ZM343.286 41.9145C343.286 41.5641 343.238 41.2496 343.144 40.9708C343.05 40.6921 342.916 40.4572 342.743 40.2661C342.569 40.0723 342.359 39.9236 342.113 39.8201C341.866 39.7166 341.591 39.6648 341.286 39.6648C340.984 39.6648 340.71 39.7166 340.464 39.8201C340.217 39.9236 340.006 40.0723 339.83 40.2661C339.657 40.4572 339.523 40.6921 339.428 40.9708C339.334 41.2496 339.287 41.5641 339.287 41.9145C339.287 42.2649 339.334 42.5795 339.428 42.8582C339.523 43.1343 339.657 43.3692 339.83 43.563C340.006 43.7541 340.217 43.9015 340.464 44.005C340.71 44.1059 340.984 44.1563 341.286 44.1563C341.591 44.1563 341.866 44.1059 342.113 44.005C342.359 43.9015 342.569 43.7541 342.743 43.563C342.916 43.3692 343.05 43.1343 343.144 42.8582C343.238 42.5795 343.286 42.2649 343.286 41.9145Z" fill="#B7B7B7"/>
<path d="M349.839 39.0596V44.7655H349.457C349.397 44.7655 349.346 44.7549 349.304 44.7337C349.264 44.7124 349.225 44.6766 349.186 44.6262L345.923 40.3258C345.928 40.3922 345.932 40.4572 345.935 40.5209C345.937 40.5846 345.938 40.6444 345.938 40.7001V44.7655H345.269V39.0596H345.663C345.697 39.0596 345.726 39.0622 345.75 39.0676C345.773 39.0701 345.794 39.0767 345.813 39.0875C345.831 39.0954 345.849 39.1087 345.868 39.1273C345.886 39.1432 345.906 39.1644 345.927 39.191L349.19 43.4873C349.184 43.4183 349.179 43.3519 349.174 43.2882C349.171 43.2219 349.17 43.1595 349.17 43.1011V39.0595L349.839 39.0596Z" fill="#B7B7B7"/>
<path d="M354.869 44.1364L354.865 44.7655H351.39V39.0596H354.865V39.6887H352.153V41.5841H354.35V42.1893H352.153V44.1364H354.869Z" fill="#B7B7B7"/>
<path d="M358.931 39.9515C358.907 39.9913 358.881 40.0218 358.852 40.0431C358.826 40.0617 358.793 40.071 358.754 40.071C358.709 40.071 358.657 40.0484 358.596 40.0033C358.536 39.9582 358.46 39.9091 358.368 39.856C358.279 39.8002 358.17 39.7498 358.041 39.7047C357.916 39.6595 357.762 39.637 357.581 39.637C357.41 39.637 357.26 39.6609 357.128 39.7086C357 39.7537 356.891 39.8161 356.802 39.8958C356.715 39.9754 356.649 40.0696 356.605 40.1785C356.56 40.2847 356.538 40.4001 356.538 40.5249C356.538 40.6842 356.576 40.8169 356.652 40.9231C356.731 41.0266 356.833 41.1155 356.959 41.1899C357.088 41.2642 357.232 41.3292 357.392 41.385C357.555 41.4381 357.72 41.4938 357.888 41.5522C358.059 41.6106 358.224 41.677 358.384 41.7513C358.547 41.823 358.691 41.9146 358.817 42.026C358.945 42.1375 359.048 42.2742 359.124 42.4362C359.203 42.5981 359.242 42.7972 359.242 43.0334C359.242 43.283 359.2 43.5179 359.116 43.7382C359.032 43.9559 358.909 44.1457 358.746 44.3076C358.586 44.4695 358.388 44.597 358.152 44.6899C357.918 44.7828 357.652 44.8292 357.353 44.8292C356.985 44.8292 356.652 44.7629 356.353 44.6301C356.054 44.4948 355.798 44.3129 355.585 44.0846L355.806 43.7183C355.827 43.6891 355.852 43.6652 355.881 43.6467C355.912 43.6254 355.946 43.6148 355.983 43.6148C356.017 43.6148 356.055 43.6294 356.097 43.6586C356.142 43.6851 356.192 43.7196 356.247 43.7621C356.302 43.8046 356.365 43.851 356.436 43.9015C356.506 43.9519 356.586 43.9984 356.676 44.0408C356.768 44.0833 356.871 44.1192 356.987 44.1484C357.102 44.1749 357.232 44.1882 357.376 44.1882C357.557 44.1882 357.719 44.163 357.86 44.1125C358.002 44.0621 358.122 43.9918 358.219 43.9015C358.318 43.8086 358.394 43.6984 358.447 43.571C358.499 43.4436 358.526 43.3016 358.526 43.145C358.526 42.9724 358.486 42.8317 358.408 42.7229C358.331 42.6114 358.23 42.5185 358.104 42.4442C357.978 42.3698 357.834 42.3074 357.671 42.257C357.509 42.2039 357.343 42.1508 357.176 42.0977C357.008 42.042 356.842 41.9783 356.68 41.9066C356.517 41.8349 356.373 41.742 356.247 41.6279C356.121 41.5137 356.018 41.3717 355.94 41.2018C355.864 41.0293 355.826 40.8169 355.826 40.5648C355.826 40.363 355.864 40.1679 355.94 39.9794C356.018 39.7909 356.131 39.6237 356.278 39.4777C356.428 39.3317 356.61 39.2149 356.825 39.1273C357.043 39.0397 357.292 38.9959 357.573 38.9959C357.888 38.9959 358.174 39.0463 358.431 39.1472C358.691 39.2481 358.919 39.3941 359.116 39.5852L358.931 39.9515Z" fill="#B7B7B7"/>
<path d="M361.19 44.7655H360.427V39.0596H361.19V44.7655Z" fill="#B7B7B7"/>
<path d="M365.736 42.6472L364.851 40.3258C364.824 40.2568 364.797 40.1772 364.768 40.0869C364.739 39.994 364.712 39.8958 364.685 39.7923C364.63 40.0073 364.574 40.1864 364.516 40.3298L363.631 42.6472H365.736ZM367.326 44.7655H366.736C366.668 44.7655 366.613 44.7483 366.571 44.7138C366.529 44.6793 366.497 44.6355 366.476 44.5824L365.949 43.2047H363.418L362.891 44.5824C362.875 44.6301 362.845 44.6726 362.8 44.7098C362.755 44.7469 362.7 44.7655 362.635 44.7655H362.044L364.3 39.0596H365.071L367.326 44.7655Z" fill="#B7B7B7"/>
<path d="M285.941 41.1424C286.557 41.1424 287.058 41.0617 287.444 40.9002C287.839 40.7388 288.147 40.5299 288.367 40.2735C288.588 40.0171 288.74 39.7275 288.822 39.4047C288.905 39.0818 288.946 38.7542 288.946 38.4218C288.946 38.042 288.896 37.7001 288.795 37.3963C288.703 37.0924 288.537 36.836 288.298 36.6271C288.069 36.4182 287.761 36.2568 287.375 36.1428C286.989 36.0289 286.502 35.9719 285.913 35.9719H282.66V41.1424H285.941ZM282.66 27.625V32.7528H285.086C285.601 32.7528 286.065 32.7148 286.479 32.6388C286.892 32.5629 287.241 32.4299 287.526 32.24C287.821 32.0501 288.041 31.789 288.188 31.4566C288.344 31.1242 288.423 30.7064 288.423 30.2031C288.423 29.7094 288.363 29.301 288.243 28.9782C288.124 28.6458 287.94 28.3799 287.692 28.1805C287.444 27.9811 287.127 27.8387 286.741 27.7532C286.364 27.6677 285.913 27.625 285.39 27.625H282.66ZM285.39 24.0213C286.777 24.0213 287.958 24.1543 288.933 24.4202C289.907 24.686 290.702 25.0611 291.318 25.5454C291.933 26.0297 292.379 26.6184 292.655 27.3116C292.94 28.0048 293.082 28.7788 293.082 29.6334C293.082 30.0987 293.018 30.5497 292.889 30.9865C292.761 31.4139 292.558 31.8174 292.283 32.1973C292.007 32.5676 291.653 32.9095 291.221 33.2228C290.789 33.5362 290.27 33.8068 289.663 34.0347C290.987 34.3671 291.966 34.9036 292.6 35.6443C293.234 36.385 293.551 37.344 293.551 38.5215C293.551 39.4047 293.386 40.2261 293.055 40.9857C292.724 41.7454 292.237 42.4101 291.593 42.9799C290.959 43.5401 290.173 43.9817 289.236 44.3045C288.298 44.6179 287.228 44.7746 286.024 44.7746H278V24.0213H285.39Z" fill="#B7B7B7"/>
<path d="M307.865 28.2542C307.728 28.4818 307.58 28.6525 307.424 28.7664C307.277 28.8802 307.084 28.9371 306.845 28.9371C306.634 28.9371 306.404 28.8707 306.156 28.7379C305.917 28.5956 305.641 28.4391 305.329 28.2684C305.025 28.0977 304.676 27.9459 304.281 27.8131C303.886 27.6709 303.435 27.5997 302.93 27.5997C302.057 27.5997 301.404 27.7941 300.972 28.183C300.549 28.5624 300.338 29.0794 300.338 29.7338C300.338 30.1512 300.467 30.4974 300.724 30.7724C300.981 31.0475 301.317 31.2846 301.73 31.4838C302.153 31.683 302.631 31.868 303.164 32.0387C303.706 32.1999 304.258 32.3849 304.819 32.5936C305.379 32.7928 305.926 33.0299 306.459 33.305C307.001 33.58 307.479 33.931 307.893 34.3578C308.316 34.7846 308.656 35.3063 308.913 35.9228C309.17 36.5299 309.299 37.265 309.299 38.1281C309.299 39.0861 309.138 39.9824 308.817 40.8171C308.495 41.6518 308.026 42.3821 307.41 43.0081C306.804 43.6247 306.05 44.1131 305.149 44.4736C304.258 44.8245 303.242 45 302.103 45C301.478 45 300.839 44.9336 300.186 44.8008C299.543 44.668 298.918 44.4831 298.311 44.2459C297.705 43.9993 297.135 43.71 296.602 43.3781C296.069 43.0461 295.605 42.6762 295.209 42.2683L296.588 40.0203C296.698 39.8591 296.841 39.7263 297.015 39.622C297.199 39.5082 297.397 39.4513 297.608 39.4513C297.884 39.4513 298.16 39.5414 298.435 39.7216C298.72 39.9018 299.037 40.101 299.387 40.3191C299.745 40.5373 300.154 40.7365 300.614 40.9167C301.073 41.0969 301.616 41.187 302.241 41.187C303.086 41.187 303.743 40.9973 304.212 40.6179C304.681 40.229 304.915 39.6172 304.915 38.7826C304.915 38.2988 304.786 37.9052 304.529 37.6017C304.272 37.2981 303.932 37.0468 303.509 36.8476C303.095 36.6484 302.622 36.473 302.089 36.3212C301.556 36.1694 301.009 36.0034 300.448 35.8232C299.888 35.6335 299.341 35.4059 298.808 35.1403C298.275 34.8652 297.797 34.5096 297.374 34.0732C296.96 33.6275 296.625 33.0773 296.368 32.4228C296.11 31.7589 295.981 30.9432 295.981 29.9757C295.981 29.1979 296.133 28.4391 296.436 27.6993C296.74 26.9595 297.185 26.3003 297.774 25.7217C298.362 25.1431 299.083 24.683 299.938 24.3416C300.793 23.9906 301.772 23.8152 302.875 23.8152C303.49 23.8152 304.088 23.8673 304.667 23.9717C305.255 24.0665 305.811 24.2136 306.335 24.4127C306.859 24.6024 307.346 24.8348 307.796 25.1099C308.256 25.3755 308.665 25.679 309.023 26.0205L307.865 28.2542Z" fill="#B7B7B7"/>
<path fill-rule="evenodd" clip-rule="evenodd" d="M324.52 23.1629C320.942 22.8068 319.684 24.8201 318.983 25.816C318.087 21.8347 316.574 22.1487 314.954 21.1457C317.295 19.7573 317.949 17.5987 317.885 16C320.178 17.7179 321.776 17.5335 323.756 16.9765C322.771 19.9808 323.393 20.8288 324.52 23.1629Z" fill="#B7B7B7"/>
<path d="M317.037 44.7832H312.192V23.5602C315.224 23.9801 317.042 26.5431 317.037 29.2559V44.7832Z" fill="#B7B7B7"/>
</g>
<path d="M410.468 20.356C410.74 20.14 410.864 20.04 410.84 20.056C411.624 19.408 412.24 18.876 412.688 18.46C413.144 18.044 413.528 17.608 413.84 17.152C414.152 16.696 414.308 16.252 414.308 15.82C414.308 15.492 414.232 15.236 414.08 15.052C413.928 14.868 413.7 14.776 413.396 14.776C413.092 14.776 412.852 14.892 412.676 15.124C412.508 15.348 412.424 15.668 412.424 16.084H410.444C410.46 15.404 410.604 14.836 410.876 14.38C411.156 13.924 411.52 13.588 411.968 13.372C412.424 13.156 412.928 13.048 413.48 13.048C414.432 13.048 415.148 13.292 415.628 13.78C416.116 14.268 416.36 14.904 416.36 15.688C416.36 16.544 416.068 17.34 415.484 18.076C414.9 18.804 414.156 19.516 413.252 20.212H416.492V21.88H410.468V20.356ZM416.315 17.5C416.315 16.124 416.579 15.04 417.107 14.248C417.643 13.456 418.503 13.06 419.687 13.06C420.871 13.06 421.727 13.456 422.255 14.248C422.791 15.04 423.059 16.124 423.059 17.5C423.059 18.892 422.791 19.984 422.255 20.776C421.727 21.568 420.871 21.964 419.687 21.964C418.503 21.964 417.643 21.568 417.107 20.776C416.579 19.984 416.315 18.892 416.315 17.5ZM421.043 17.5C421.043 16.692 420.955 16.072 420.779 15.64C420.603 15.2 420.239 14.98 419.687 14.98C419.135 14.98 418.771 15.2 418.595 15.64C418.419 16.072 418.331 16.692 418.331 17.5C418.331 18.044 418.363 18.496 418.427 18.856C418.491 19.208 418.619 19.496 418.811 19.72C419.011 19.936 419.303 20.044 419.687 20.044C420.071 20.044 420.359 19.936 420.551 19.72C420.751 19.496 420.883 19.208 420.947 18.856C421.011 18.496 421.043 18.044 421.043 17.5ZM429.352 18.724H427.264V20.86H425.32V18.724H423.232V16.888H425.32V14.74H427.264V16.888H429.352V18.724ZM436.143 16.288C436.143 16.776 436.031 17.224 435.807 17.632C435.583 18.032 435.239 18.356 434.775 18.604C434.311 18.852 433.735 18.976 433.047 18.976H431.775V22H429.723V13.576H433.047C433.719 13.576 434.287 13.692 434.751 13.924C435.215 14.156 435.563 14.476 435.795 14.884C436.027 15.292 436.143 15.76 436.143 16.288ZM432.891 17.344C433.283 17.344 433.575 17.252 433.767 17.068C433.959 16.884 434.055 16.624 434.055 16.288C434.055 15.952 433.959 15.692 433.767 15.508C433.575 15.324 433.283 15.232 432.891 15.232H431.775V17.344H432.891ZM435.723 18.64C435.723 17.952 435.851 17.348 436.107 16.828C436.371 16.308 436.727 15.908 437.175 15.628C437.623 15.348 438.123 15.208 438.675 15.208C439.147 15.208 439.559 15.304 439.911 15.496C440.271 15.688 440.547 15.94 440.739 16.252V15.304H442.791V22H440.739V21.052C440.539 21.364 440.259 21.616 439.899 21.808C439.547 22 439.135 22.096 438.663 22.096C438.119 22.096 437.623 21.956 437.175 21.676C436.727 21.388 436.371 20.984 436.107 20.464C435.851 19.936 435.723 19.328 435.723 18.64ZM440.739 18.652C440.739 18.14 440.595 17.736 440.307 17.44C440.027 17.144 439.683 16.996 439.275 16.996C438.867 16.996 438.519 17.144 438.231 17.44C437.951 17.728 437.811 18.128 437.811 18.64C437.811 19.152 437.951 19.56 438.231 19.864C438.519 20.16 438.867 20.308 439.275 20.308C439.683 20.308 440.027 20.16 440.307 19.864C440.595 19.568 440.739 19.164 440.739 18.652ZM450.036 15.304L445.836 25.18H443.628L445.164 21.772L442.44 15.304H444.732L446.28 19.492L447.816 15.304H450.036ZM458.242 15.232C459.074 15.232 459.734 15.484 460.222 15.988C460.718 16.492 460.966 17.192 460.966 18.088V22H458.926V18.364C458.926 17.932 458.81 17.6 458.578 17.368C458.354 17.128 458.042 17.008 457.642 17.008C457.242 17.008 456.926 17.128 456.694 17.368C456.47 17.6 456.358 17.932 456.358 18.364V22H454.318V18.364C454.318 17.932 454.202 17.6 453.97 17.368C453.746 17.128 453.434 17.008 453.034 17.008C452.634 17.008 452.318 17.128 452.086 17.368C451.862 17.6 451.75 17.932 451.75 18.364V22H449.698V15.304H451.75V16.144C451.958 15.864 452.23 15.644 452.566 15.484C452.902 15.316 453.282 15.232 453.706 15.232C454.21 15.232 454.658 15.34 455.05 15.556C455.45 15.772 455.762 16.08 455.986 16.48C456.218 16.112 456.534 15.812 456.934 15.58C457.334 15.348 457.77 15.232 458.242 15.232ZM467.633 18.544C467.633 18.736 467.621 18.936 467.597 19.144H462.953C462.985 19.56 463.117 19.88 463.349 20.104C463.589 20.32 463.881 20.428 464.225 20.428C464.737 20.428 465.093 20.212 465.293 19.78H467.477C467.365 20.22 467.161 20.616 466.865 20.968C466.577 21.32 466.213 21.596 465.773 21.796C465.333 21.996 464.841 22.096 464.297 22.096C463.641 22.096 463.057 21.956 462.545 21.676C462.033 21.396 461.633 20.996 461.345 20.476C461.057 19.956 460.913 19.348 460.913 18.652C460.913 17.956 461.053 17.348 461.333 16.828C461.621 16.308 462.021 15.908 462.533 15.628C463.045 15.348 463.633 15.208 464.297 15.208C464.945 15.208 465.521 15.344 466.025 15.616C466.529 15.888 466.921 16.276 467.201 16.78C467.489 17.284 467.633 17.872 467.633 18.544ZM465.533 18.004C465.533 17.652 465.413 17.372 465.173 17.164C464.933 16.956 464.633 16.852 464.273 16.852C463.929 16.852 463.637 16.952 463.397 17.152C463.165 17.352 463.021 17.636 462.965 18.004H465.533ZM471.715 15.232C472.499 15.232 473.123 15.488 473.587 16C474.059 16.504 474.295 17.2 474.295 18.088V22H472.255V18.364C472.255 17.916 472.139 17.568 471.907 17.32C471.675 17.072 471.363 16.948 470.971 16.948C470.579 16.948 470.267 17.072 470.035 17.32C469.803 17.568 469.687 17.916 469.687 18.364V22H467.635V15.304H469.687V16.192C469.895 15.896 470.175 15.664 470.527 15.496C470.879 15.32 471.275 15.232 471.715 15.232ZM478.373 20.26V22H477.329C476.585 22 476.005 21.82 475.589 21.46C475.173 21.092 474.965 20.496 474.965 19.672V17.008H474.149V15.304H474.965V13.672H477.017V15.304H478.361V17.008H477.017V19.696C477.017 19.896 477.065 20.04 477.161 20.128C477.257 20.216 477.417 20.26 477.641 20.26H478.373ZM420.284 31.576V40H418.232V34.948L416.348 40H414.692L412.796 34.936V40H410.744V31.576H413.168L415.532 37.408L417.872 31.576H420.284ZM426.992 36.544C426.992 36.736 426.98 36.936 426.956 37.144H422.312C422.344 37.56 422.476 37.88 422.708 38.104C422.948 38.32 423.24 38.428 423.584 38.428C424.096 38.428 424.452 38.212 424.652 37.78H426.836C426.724 38.22 426.52 38.616 426.224 38.968C425.936 39.32 425.572 39.596 425.132 39.796C424.692 39.996 424.2 40.096 423.656 40.096C423 40.096 422.416 39.956 421.904 39.676C421.392 39.396 420.992 38.996 420.704 38.476C420.416 37.956 420.272 37.348 420.272 36.652C420.272 35.956 420.412 35.348 420.692 34.828C420.98 34.308 421.38 33.908 421.892 33.628C422.404 33.348 422.992 33.208 423.656 33.208C424.304 33.208 424.88 33.344 425.384 33.616C425.888 33.888 426.28 34.276 426.56 34.78C426.848 35.284 426.992 35.872 426.992 36.544ZM424.892 36.004C424.892 35.652 424.772 35.372 424.532 35.164C424.292 34.956 423.992 34.852 423.632 34.852C423.288 34.852 422.996 34.952 422.756 35.152C422.524 35.352 422.38 35.636 422.324 36.004H424.892ZM430.726 38.26V40H429.682C428.938 40 428.358 39.82 427.942 39.46C427.526 39.092 427.318 38.496 427.318 37.672V35.008H426.502V33.304H427.318V31.672H429.37V33.304H430.714V35.008H429.37V37.696C429.37 37.896 429.418 38.04 429.514 38.128C429.61 38.216 429.77 38.26 429.994 38.26H430.726ZM434.905 33.232C435.673 33.232 436.289 33.488 436.753 34C437.217 34.504 437.449 35.2 437.449 36.088V40H435.409V36.364C435.409 35.916 435.293 35.568 435.061 35.32C434.829 35.072 434.517 34.948 434.125 34.948C433.733 34.948 433.421 35.072 433.189 35.32C432.957 35.568 432.841 35.916 432.841 36.364V40H430.789V31.12H432.841V34.204C433.049 33.908 433.333 33.672 433.693 33.496C434.053 33.32 434.457 33.232 434.905 33.232ZM440.843 40.096C440.187 40.096 439.595 39.956 439.067 39.676C438.547 39.396 438.135 38.996 437.831 38.476C437.535 37.956 437.387 37.348 437.387 36.652C437.387 35.964 437.539 35.36 437.843 34.84C438.147 34.312 438.563 33.908 439.091 33.628C439.619 33.348 440.211 33.208 440.867 33.208C441.523 33.208 442.115 33.348 442.643 33.628C443.171 33.908 443.587 34.312 443.891 34.84C444.195 35.36 444.347 35.964 444.347 36.652C444.347 37.34 444.191 37.948 443.879 38.476C443.575 38.996 443.155 39.396 442.619 39.676C442.091 39.956 441.499 40.096 440.843 40.096ZM440.843 38.32C441.235 38.32 441.567 38.176 441.839 37.888C442.119 37.6 442.259 37.188 442.259 36.652C442.259 36.116 442.123 35.704 441.851 35.416C441.587 35.128 441.259 34.984 440.867 34.984C440.467 34.984 440.135 35.128 439.871 35.416C439.607 35.696 439.475 36.108 439.475 36.652C439.475 37.188 439.603 37.6 439.859 37.888C440.123 38.176 440.451 38.32 440.843 38.32ZM443.948 36.64C443.948 35.952 444.076 35.348 444.332 34.828C444.596 34.308 444.952 33.908 445.4 33.628C445.848 33.348 446.348 33.208 446.9 33.208C447.34 33.208 447.74 33.3 448.1 33.484C448.468 33.668 448.756 33.916 448.964 34.228V31.12H451.016V40H448.964V39.04C448.772 39.36 448.496 39.616 448.136 39.808C447.784 40 447.372 40.096 446.9 40.096C446.348 40.096 445.848 39.956 445.4 39.676C444.952 39.388 444.596 38.984 444.332 38.464C444.076 37.936 443.948 37.328 443.948 36.64ZM448.964 36.652C448.964 36.14 448.82 35.736 448.532 35.44C448.252 35.144 447.908 34.996 447.5 34.996C447.092 34.996 446.744 35.144 446.456 35.44C446.176 35.728 446.036 36.128 446.036 36.64C446.036 37.152 446.176 37.56 446.456 37.864C446.744 38.16 447.092 38.308 447.5 38.308C447.908 38.308 448.252 38.16 448.532 37.864C448.82 37.568 448.964 37.164 448.964 36.652Z" fill="#B7B7B7"/>
<defs>
<clipPath id="clip0_26_212">
<rect width="93" height="30" fill="white" transform="translate(11 15)"/>
</clipPath>
<clipPath id="clip1_26_212">
<rect width="114" height="33" fill="white" transform="translate(134 12)"/>
</clipPath>
<clipPath id="clip2_26_212">
<rect width="102" height="29" fill="white" transform="translate(278 16)"/>
</clipPath>
</defs>
</svg>
