<svg width="1440" height="211" viewBox="0 0 1440 211" fill="none" xmlns="http://www.w3.org/2000/svg">
<path d="M1453.57 25.9488L1418.92 19.697C1384.11 13.4461 1314.79 0.942331 1245.34 0.0519636C1175.91 -0.838404 1106.65 9.88362 1037.23 19.1278C967.811 28.5834 898.542 36.3497 828.787 31.659C759.186 26.9683 689.249 9.39982 619.67 14.2104C549.938 19.0211 480.714 45.789 411.282 49.1218C341.852 52.4546 272.516 32.3501 203.075 31.6712C133.636 31.2026 64.3938 50.3699 29.6209 59.9536L-5 69.5372L-4.66525 211L29.9782 210.917C64.7735 210.834 134.06 210.67 203.499 210.504C272.938 210.338 342.225 210.174 411.663 210.008C481.102 209.843 550.389 209.678 620.132 209.512C689.722 209.346 759.617 209.18 829.208 209.014C898.95 208.848 968.237 208.684 1037.67 208.518C1107.12 208.352 1176.4 208.188 1245.84 208.023C1315.27 207.857 1384.57 207.693 1419.36 207.609L1454 207.527L1453.57 25.9488Z" fill="white"/>
</svg>
