<svg width="1440" height="135" viewBox="0 0 1440 135" fill="none" xmlns="http://www.w3.org/2000/svg">
<path d="M1449.23 134.858L1414.63 122.741C1379.87 110.622 1310.66 86.3879 1241.24 83.3718C1171.83 80.1387 1102.52 98.3441 1033.09 105.83C963.651 113.314 894.392 110.081 824.688 102.033C755.136 93.7672 685.292 80.4694 615.736 74.3907C546.027 68.5311 476.758 69.6727 407.312 81.533C337.865 93.3944 268.547 115.974 199.108 125.21C129.668 134.446 60.4098 130.775 25.6292 128.72L-9 126.885L-8.71031 0L25.9229 0.0863495C60.7079 0.171646 129.974 0.342239 199.393 0.513901C268.811 0.685547 338.077 0.856171 407.495 1.02783C476.914 1.19843 546.18 1.3701 615.902 1.54176C685.472 1.71342 755.347 1.88612 824.916 2.05779C894.638 2.22945 963.904 2.40005 1033.32 2.57172C1102.74 2.74338 1172 2.91397 1241.43 3.08458C1310.84 3.25624 1380.11 3.42686 1414.9 3.51321L1449.52 3.59851L1449.23 134.858Z" fill="white"/>
</svg>
