<svg id="visual" viewBox="0 0 960 540" width="960" height="540" xmlns="http://www.w3.org/2000/svg" xmlns:xlink="http://www.w3.org/1999/xlink" version="1.1"><path d="M0 358L16 347.2C32 336.3 64 314.7 96 314.3C128 314 160 335 192 330C224 325 256 294 288 295.3C320 296.7 352 330.3 384 345C416 359.7 448 355.3 480 336.2C512 317 544 283 576 284.3C608 285.7 640 322.3 672 324.7C704 327 736 295 768 297C800 299 832 335 864 343.7C896 352.3 928 333.7 944 324.3L960 315L960 541L944 541C928 541 896 541 864 541C832 541 800 541 768 541C736 541 704 541 672 541C640 541 608 541 576 541C544 541 512 541 480 541C448 541 416 541 384 541C352 541 320 541 288 541C256 541 224 541 192 541C160 541 128 541 96 541C64 541 32 541 16 541L0 541Z" fill="#73c7ff"></path><path d="M0 281L16 294.2C32 307.3 64 333.7 96 332.7C128 331.7 160 303.3 192 299.3C224 295.3 256 315.7 288 325.5C320 335.3 352 334.7 384 330.2C416 325.7 448 317.3 480 326.2C512 335 544 361 576 362.8C608 364.7 640 342.3 672 338.7C704 335 736 350 768 348.2C800 346.3 832 327.7 864 319.7C896 311.7 928 314.3 944 315.7L960 317L960 541L944 541C928 541 896 541 864 541C832 541 800 541 768 541C736 541 704 541 672 541C640 541 608 541 576 541C544 541 512 541 480 541C448 541 416 541 384 541C352 541 320 541 288 541C256 541 224 541 192 541C160 541 128 541 96 541C64 541 32 541 16 541L0 541Z" fill="#5fbdff"></path><path d="M0 313L16 318C32 323 64 333 96 334C128 335 160 327 192 327.2C224 327.3 256 335.7 288 350.3C320 365 352 386 384 381.2C416 376.3 448 345.7 480 339.8C512 334 544 353 576 353.2C608 353.3 640 334.7 672 341C704 347.3 736 378.7 768 382.5C800 386.3 832 362.7 864 347.3C896 332 928 325 944 321.5L960 318L960 541L944 541C928 541 896 541 864 541C832 541 800 541 768 541C736 541 704 541 672 541C640 541 608 541 576 541C544 541 512 541 480 541C448 541 416 541 384 541C352 541 320 541 288 541C256 541 224 541 192 541C160 541 128 541 96 541C64 541 32 541 16 541L0 541Z" fill="#4ab3ff"></path><path d="M0 431L16 425.2C32 419.3 64 407.7 96 401.2C128 394.7 160 393.3 192 386.3C224 379.3 256 366.7 288 366C320 365.3 352 376.7 384 381.7C416 386.7 448 385.3 480 386.3C512 387.3 544 390.7 576 390.7C608 390.7 640 387.3 672 391.2C704 395 736 406 768 399.2C800 392.3 832 367.7 864 367C896 366.3 928 389.7 944 401.3L960 413L960 541L944 541C928 541 896 541 864 541C832 541 800 541 768 541C736 541 704 541 672 541C640 541 608 541 576 541C544 541 512 541 480 541C448 541 416 541 384 541C352 541 320 541 288 541C256 541 224 541 192 541C160 541 128 541 96 541C64 541 32 541 16 541L0 541Z" fill="#33a8ff"></path><path d="M0 453L16 446.3C32 439.7 64 426.3 96 426.5C128 426.7 160 440.3 192 445.5C224 450.7 256 447.3 288 440C320 432.7 352 421.3 384 413.7C416 406 448 402 480 397.5C512 393 544 388 576 391.5C608 395 640 407 672 409.3C704 411.7 736 404.3 768 409.7C800 415 832 433 864 439C896 445 928 439 944 436L960 433L960 541L944 541C928 541 896 541 864 541C832 541 800 541 768 541C736 541 704 541 672 541C640 541 608 541 576 541C544 541 512 541 480 541C448 541 416 541 384 541C352 541 320 541 288 541C256 541 224 541 192 541C160 541 128 541 96 541C64 541 32 541 16 541L0 541Z" fill="#199eff"></path><path d="M0 477L16 477C32 477 64 477 96 475.5C128 474 160 471 192 466.8C224 462.7 256 457.3 288 454.5C320 451.7 352 451.3 384 445.5C416 439.7 448 428.3 480 427.2C512 426 544 435 576 441.8C608 448.7 640 453.3 672 450.2C704 447 736 436 768 436.5C800 437 832 449 864 450.5C896 452 928 443 944 438.5L960 434L960 541L944 541C928 541 896 541 864 541C832 541 800 541 768 541C736 541 704 541 672 541C640 541 608 541 576 541C544 541 512 541 480 541C448 541 416 541 384 541C352 541 320 541 288 541C256 541 224 541 192 541C160 541 128 541 96 541C64 541 32 541 16 541L0 541Z" fill="#0093ff"></path><path d="M0 448L16 452.5C32 457 64 466 96 470.8C128 475.7 160 476.3 192 471.5C224 466.7 256 456.3 288 455.3C320 454.3 352 462.7 384 464.3C416 466 448 461 480 456.7C512 452.3 544 448.7 576 451.2C608 453.7 640 462.3 672 463.7C704 465 736 459 768 462.2C800 465.3 832 477.7 864 480.8C896 484 928 478 944 475L960 472L960 541L944 541C928 541 896 541 864 541C832 541 800 541 768 541C736 541 704 541 672 541C640 541 608 541 576 541C544 541 512 541 480 541C448 541 416 541 384 541C352 541 320 541 288 541C256 541 224 541 192 541C160 541 128 541 96 541C64 541 32 541 16 541L0 541Z" fill="#0087ff"></path><path d="M0 484L16 487.3C32 490.7 64 497.3 96 501.5C128 505.7 160 507.3 192 509.2C224 511 256 513 288 513.3C320 513.7 352 512.3 384 509.2C416 506 448 501 480 496.2C512 491.3 544 486.7 576 483.7C608 480.7 640 479.3 672 482.2C704 485 736 492 768 496.2C800 500.3 832 501.7 864 499.3C896 497 928 491 944 488L960 485L960 541L944 541C928 541 896 541 864 541C832 541 800 541 768 541C736 541 704 541 672 541C640 541 608 541 576 541C544 541 512 541 480 541C448 541 416 541 384 541C352 541 320 541 288 541C256 541 224 541 192 541C160 541 128 541 96 541C64 541 32 541 16 541L0 541Z" fill="#177aff"></path></svg>